Coordinates
version=1
nRows=16
nColumns=44
inDegrees=yes

Units are S.I. units (second, meters, Newtons, ...)
Angles are in degrees.

endheader
time	pelvis_tilt	pelvis_list	pelvis_rotation	pelvis_tx	pelvis_ty	pelvis_tz	hip_flexion_r	hip_adduction_r	hip_rotation_r	knee_angle_r	knee_adduction_r	knee_rotation_r	knee_angle_r_beta	ankle_angle_r	ankle_adduction_r	ankle_rotation_r	hip_flexion_l	hip_adduction_l	hip_rotation_l	knee_angle_l	knee_adduction_l	knee_rotation_l	knee_angle_l_beta	ankle_angle_l	ankle_adduction_l	ankle_rotation_l	lumbar_extension	lumbar_bending	lumbar_rotation	arm_flex_r	arm_add_r	arm_rot_r	elbow_flex_r	pro_sup_r	wrist_flex_r	wrist_dev_r	arm_flex_l	arm_add_l	arm_rot_l	elbow_flex_l	pro_sup_l	wrist_flex_l	wrist_dev_l
      0.67000002	    -15.91198341	      4.15734105	    -10.96298875	      2.45599595	      0.94468165	      0.04015484	      8.79876779	     -0.01644632	      9.08325462	     28.04411339	      0.96979068	      5.40185335	      0.48946211	     -2.97874829	     -0.12495260	     -2.69932374	     50.83071895	     -4.40455154	     -5.59503574	     78.40483929	      0.46554520	     -0.43985925	      1.36842260	     -6.97278839	      3.81699579	     -1.77118487	      1.52270708	     -1.98192914	     18.77787609	      4.54733129	    -19.71214683	      9.13997802	    115.35569462	     35.80452918	      0.00000000	      0.00000000	    -26.86297967	    -26.94498087	     11.59883598	    113.67034365	     33.23998629	      0.00000000	      0.00000000
      0.67500001	    -16.11919496	      4.52939398	    -10.82982658	      2.47476446	      0.94880137	      0.04001509	      7.62118600	     -1.04412356	      8.44256834	     26.58780402	      1.28873661	      5.33436716	      0.46404472	     -5.10263124	      0.24265828	     -2.65340376	     51.23731052	     -3.90375129	     -5.32256813	     75.70665291	      0.94180202	     -0.38200810	      1.32133036	     -6.73421772	      3.90756509	     -1.63645350	      2.04723889	     -2.40600633	     19.18796827	      4.26558557	    -19.62214931	      9.58316156	    116.18332534	     35.86634089	      0.00000000	      0.00000000	    -27.66642695	    -27.18928551	     11.10758809	    113.53986393	     33.25117675	      0.00000000	      0.00000000
      0.68000001	    -15.74046229	      4.89579466	    -10.66563746	      2.49355707	      0.95391402	      0.03976880	      5.53111991	     -2.08636889	      8.69021176	     24.46799945	      1.56907618	      4.01676697	      0.42704715	     -9.32243079	      1.22639492	     -2.61039968	     50.83899606	     -3.17369790	     -4.80873277	     72.74929165	      1.54289339	     -0.41265109	      1.26971467	     -6.60753594	      4.16150967	     -1.88330700	      1.82057435	     -2.96049593	     19.39014611	      4.53439242	    -19.51928607	     10.06836044	    116.74423831	     35.93220802	      0.00000000	      0.00000000	    -28.41092834	    -26.96414298	     10.11542780	    113.55162035	     33.31288766	      0.00000000	      0.00000000
      0.68500000	    -15.68361187	      5.13199730	    -10.43168805	      2.51248737	      0.95832153	      0.03957113	      3.84382766	     -2.90968269	      8.86241235	     22.54424886	      1.56914757	      1.12749199	      0.39347137	    -13.44827021	      2.89998189	     -0.46618146	     50.73479589	     -2.63195340	     -4.34493375	     69.76670477	      2.08518578	      0.10235106	      1.21765871	     -6.19806433	      4.73932138	     -2.29712750	      1.99113199	     -3.31661268	     19.51145592	      4.59024049	    -19.47772137	     10.67559226	    117.31536718	     36.09727158	      0.00000000	      0.00000000	    -29.28545522	    -26.84870288	      9.17102684	    113.60965558	     33.33380069	      0.00000000	      0.00000000
      0.69000000	    -15.64792260	      5.47432906	    -10.24382884	      2.53135233	      0.96252661	      0.03929877	      2.31904391	     -3.89907165	      8.56385436	     20.79283789	      1.87576945	      0.77899450	      0.36290348	    -16.96155464	      3.37517844	     -0.74965910	     50.57434933	     -1.99702282	     -3.93775896	     66.64731530	      2.51954235	      0.14471029	      1.16321509	     -6.13848289	      4.93936467	     -2.31821761	      2.18609990	     -3.77830263	     19.78195910	      4.42756861	    -19.36351143	     10.98520265	    118.02480397	     36.16392934	      0.00000000	      0.00000000	    -30.00383651	    -26.86843672	      8.45699800	    113.69587946	     33.38971119	      0.00000000	      0.00000000
      0.69499999	    -15.25369201	      5.58193805	     -9.89611263	      2.55076914	      0.96711607	      0.03910687	      0.20235069	     -4.53238220	      8.08420347	     18.83612550	      1.61762971	     -1.07125222	      0.32875241	    -21.00566458	      4.98103683	      0.55804271	     49.87587111	     -1.39714524	     -3.34564200	     63.44054490	      2.92048808	      0.44840612	      1.10724639	     -5.89834866	      5.57861873	     -2.51380470	      1.94728204	     -4.08332676	     19.67189528	      4.56131979	    -19.24863882	     11.61669410	    118.39182950	     36.24195821	      0.00000000	      0.00000000	    -30.83628492	    -26.65323649	      7.31660407	    113.83860790	     33.45500466	      0.00000000	      0.00000000
      0.69999999	    -15.17957822	      5.85443983	     -9.73492091	      2.56987728	      0.97091854	      0.03893331	     -1.30278386	     -5.35850461	      7.47551815	     17.26810156	      1.75622890	     -1.35876975	      0.30138523	    -24.37290990	      5.56675533	      0.43640345	     49.47690994	     -0.84154167	     -2.83477119	     60.14697736	      3.32116654	      0.49093792	      1.04976279	     -6.01003487	      5.72960800	     -2.50084611	      2.10577612	     -4.48926673	     19.90646936	      4.37390101	    -18.99420515	     11.74786686	    118.85806637	     36.29468998	      0.00000000	      0.00000000	    -31.59230215	    -26.49996948	      6.47327441	    114.02013638	     33.53011835	      0.00000000	      0.00000000
      0.70500004	    -15.02051261	      6.15378701	     -9.60506197	      2.58893637	      0.97455461	      0.03893894	     -2.75755801	     -6.13689575	      6.67356174	     16.03573296	      1.74303489	     -1.65948938	      0.27987634	    -27.38488970	      6.26408256	      0.73011662	     48.92760406	     -0.28548899	     -2.49989338	     56.78790045	      3.58383505	      0.58542400	      0.99113584	     -6.06483245	      5.98976044	     -2.40276570	      2.16908675	     -4.95346467	     20.09647255	      4.22870268	    -18.81949526	     12.14106502	    119.35768261	     36.33114546	      0.00000000	      0.00000000	    -32.40690115	    -26.38061525	      5.52548221	    114.29053557	     33.62594341	      0.00000000	      0.00000000
      0.71000004	    -14.76871218	      6.28943124	     -9.39313222	      2.60828390	      0.97808270	      0.03899720	     -4.39454040	     -6.61680170	      5.75478277	     14.80092930	      1.53133393	     -2.04351879	      0.25832495	    -30.33436933	      7.11710794	      1.12001502	     48.18521203	      0.17776678	     -2.11444939	     53.41376994	      3.74412490	      0.62045437	      0.93224615	     -6.10629294	      6.28903894	     -2.28391583	      2.12114269	     -5.26971882	     20.12897465	      4.14146214	    -18.60861366	     12.52209390	    119.69825110	     36.35177731	      0.00000000	      0.00000000	    -33.27128960	    -26.15227120	      4.54507060	    114.59288341	     33.72758709	      0.00000000	      0.00000000
      0.71500003	    -14.46923224	      6.34041889	     -9.24146665	      2.62752058	      0.98136036	      0.03920385	     -5.91977119	     -6.91809457	      4.47697552	     13.97573859	      1.14385922	     -2.32555562	      0.24392265	    -32.88443660	      8.03460018	      1.81043511	     47.35461985	      0.52386660	     -1.80808047	     50.07910660	      3.75324541	      0.62327380	      0.87404530	     -6.14339439	      6.72408420	     -2.06065416	      1.97082113	     -5.51216618	     20.16168028	      4.08613850	    -18.45555888	     13.04390659	    120.06111543	     36.36728572	      0.00000000	      0.00000000	    -34.15156481	    -25.87247021	      3.49337816	    114.94968292	     33.83922477	      0.00000000	      0.00000000
      0.72000003	    -14.24588275	      6.31300171	     -9.11153803	      2.64672469	      0.98422515	      0.03949111	     -7.23848506	     -7.04733085	      3.32540432	     13.44964052	      0.76582116	     -2.30058410	      0.23474051	    -35.00397359	      8.77003374	      2.21494638	     46.56593955	      0.75729266	     -1.58912438	     46.77045422	      3.66451412	      0.61986792	      0.81629842	     -6.16466114	      7.20530517	     -1.72066357	      1.91645260	     -5.64648119	     20.20950173	      4.03335000	    -18.29834884	     13.50812709	    120.28162420	     36.37012431	      0.00000000	      0.00000000	    -35.03454613	    -25.57397891	      2.46550246	    115.31490519	     33.94900398	      0.00000000	      0.00000000
      0.72500002	    -14.15568759	      6.07814849	     -9.05665168	      2.66566512	      0.98657171	      0.03998234	     -8.25013319	     -6.89899959	      2.33468712	     13.29069226	      0.51471930	     -1.81560735	      0.23196634	    -36.44330917	      9.07646920	      2.17241189	     45.91479701	      0.70241266	     -1.45850660	     43.60728668	      3.46724901	      0.88459788	      0.76109073	     -6.21936427	      7.43841873	     -1.13520887	      1.96348987	     -5.51665499	     20.40494783	      3.96816271	    -18.16920396	     13.76832639	    120.55276324	     36.38077025	      0.00000000	      0.00000000	    -35.78070763	    -25.42204436	      1.53216197	    115.72332381	     34.06078336	      0.00000000	      0.00000000
      0.73000002	    -13.81462016	      6.02153827	     -8.94300209	      2.68485366	      0.98890003	      0.04050134	     -9.46610774	     -6.88752965	      0.93509906	     13.31229719	      0.16757178	     -0.65790172	      0.23234342	    -37.25448971	      9.41285417	      1.93465877	     44.92143634	      0.86991885	     -1.62368666	     40.35084570	      3.12738997	      0.82436251	      0.70425511	     -6.37221265	      7.82729332	     -0.49003060	      1.76130424	     -5.68734013	     20.30176535	      4.03511876	    -18.04071843	     14.31744193	    120.63122965	     36.35575728	      0.00000000	      0.00000000	    -36.75449977	    -24.89849815	      0.34768798	    116.18563325	     34.19031667	      0.00000000	      0.00000000
      0.73500001	    -13.61047396	      5.78299209	     -8.89229250	      2.70376058	      0.99066044	      0.04099213	    -10.39905507	     -6.68173367	     -0.27058974	     13.65065152	      0.01473015	      1.18393917	      0.23824881	    -37.41634975	      9.72092508	      1.13219732	     44.10311908	      0.82382217	     -1.85115110	     37.28742642	      2.68472911	      0.80979774	      0.65078836	     -6.46430836	      8.27926841	      0.51162047	      1.66958083	     -5.58365324	     20.35095156	      4.04367789	    -18.02934158	     14.94981651	    120.76413106	     36.32898334	      0.00000000	      0.00000000	    -37.56480044	    -24.52421524	     -0.66370985	    116.60055563	     34.28748106	      0.00000000	      0.00000000
      0.74000001	    -13.43974838	      5.42483105	     -8.82163144	      2.72266030	      0.99207234	      0.04159781	    -11.24479692	     -6.30366015	     -1.15173627	     14.16211013	     -0.12840187	      2.81274860	      0.24717545	    -37.36767581	      9.97806627	      0.39229989	     43.32434306	      0.62966854	     -2.07720225	     34.35513599	      2.32703102	      0.91153240	      0.59961024	     -6.56615920	      8.41530509	      1.43328634	      1.60567859	     -5.35065844	     20.38161349	      4.02321094	    -18.02860806	     15.44698435	    120.89064817	     36.30540015	      0.00000000	      0.00000000	    -38.33243005	    -24.15813645	     -1.62134242	    117.06284451	     34.38628351	      0.00000000	      0.00000000
      0.74500000	    -13.36081233	      4.95939547	     -8.86360084	      2.74120820	      0.99302843	      0.04235365	    -11.83862024	     -5.79010986	     -1.42829759	     15.07955330	     -0.34344863	      3.47953695	      0.26318785	    -37.09137189	      9.96391684	      0.32666227	     42.66217616	      0.21334243	     -2.23930840	     31.57776341	      2.10717320	      1.11747095	      0.55113594	     -6.57265211	      8.46758593	      2.09619303	      1.61841256	     -4.97376082	     20.62488465	      3.85803233	    -18.08467474	     15.76892687	    121.08746436	     36.29915443	      0.00000000	      0.00000000	    -38.92824662	    -23.87394227	     -2.34702188	    117.51990109	     34.48544029	      0.00000000	      0.00000000
